<svg width="33" height="25" viewBox="0 0 33 25" fill="none" xmlns="http://www.w3.org/2000/svg">
<path d="M21.9718 8.10664C23.8006 5.49381 28.6239 -0.166157 31.6061 0.925207C32.2404 1.12555 32.8129 1.65932 32.9282 2.3458C33.3484 4.13626 31.8999 5.27105 29.2033 9.75839C25.9068 15.246 24.8949 18.8872 23.4327 20.354C20.5618 23.6267 14.7444 22.1851 15.4364 13.2552C11.9792 19.0217 11.1239 26.0532 5.27633 24.868C-0.860913 23.1714 -0.57396 8.41765 0.852572 4.61259C0.950053 4.12785 1.18621 3.69074 1.3949 3.25084C2.84889 0.380225 6.2182 0.362013 7.65434 2.06561C9.12755 3.81403 8.69781 7.40334 8.47127 9.75279C9.99253 7.0531 12.6328 3.1976 15.0698 1.28386C18.873 -1.60496 23.2638 0.261143 21.9718 8.10664Z" fill="black"/>
</svg>
